<svg xmlns="http://www.w3.org/2000/svg" viewBox="0 0 64 64">
  <defs>
    <linearGradient id="grad" x1="0%" y1="0%" x2="100%" y2="100%">
      <stop offset="0%" style="stop-color:#667eea"/>
      <stop offset="100%" style="stop-color:#764ba2"/>
    </linearGradient>
  </defs>
  <circle cx="32" cy="32" r="32" fill="url(#grad)"/>
  <g transform="translate(12, 12) scale(0.625)" fill="white">
    <path d="M19.5 12c-2.5 0-4.5 2-4.5 4.5s2 4.5 4.5 4.5 4.5-2 4.5-4.5-2-4.5-4.5-4.5zm0 7c-1.4 0-2.5-1.1-2.5-2.5s1.1-2.5 2.5-2.5 2.5 1.1 2.5 2.5-1.1 2.5-2.5 2.5zm-5 7c-2.5 0-4.5 2-4.5 4.5s2 4.5 4.5 4.5 4.5-2 4.5-4.5-2-4.5-4.5-4.5zm0 7c-1.4 0-2.5-1.1-2.5-2.5s1.1-2.5 2.5-2.5 2.5 1.1 2.5 2.5-1.1 2.5-2.5 2.5zm19-14.5l-9.2 9.2c-.2-.4-.5-.8-.8-1.2l9.3-9.3c.4.4.6.9.7 1.3zm-6 6l-7.5 7.5c-.5-.3-1-.5-1.5-.6l8.2-8.2c.3.5.6.9.8 1.3zM20 32l-2-2 12-12c1.1-1.1 2.9-1.1 4 0 1.1 1.1 1.1 2.9 0 4L20 32zm2.8-2.8L34 18c.4-.4.4-1 0-1.4s-1-.4-1.4 0L21.4 27.8l1.4 1.4z"/>
  </g>
</svg>
